<svg width="26" height="26" viewBox="0 0 26 26" fill="none" xmlns="http://www.w3.org/2000/svg">
<g opacity="0.2">
<path fill-rule="evenodd" clip-rule="evenodd" d="M7.58333 17.3333C7.58333 16.7375 8.07083 16.25 8.66667 16.25C9.2625 16.25 9.75 16.7375 9.75 17.3333C9.75 17.9292 9.2625 18.4167 8.66667 18.4167C8.07083 18.4167 7.58333 17.9292 7.58333 17.3333ZM13 16.25H17.3333C17.9292 16.25 18.4167 16.7375 18.4167 17.3333C18.4167 17.9292 17.9292 18.4167 17.3333 18.4167H13C12.4042 18.4167 11.9167 17.9292 11.9167 17.3333C11.9167 16.7375 12.4042 16.25 13 16.25ZM19.5 21.6667H6.5C5.90308 21.6667 5.41667 21.1802 5.41667 20.5833V14.0833H20.5833V20.5833C20.5833 21.1802 20.0969 21.6667 19.5 21.6667ZM6.5 6.49999H7.58333V7.58332C7.58333 8.17916 8.07083 8.66666 8.66667 8.66666C9.2625 8.66666 9.75 8.17916 9.75 7.58332V6.49999H16.25V7.58332C16.25 8.17916 16.7375 8.66666 17.3333 8.66666C17.9292 8.66666 18.4167 8.17916 18.4167 7.58332V6.49999H19.5C20.0969 6.49999 20.5833 6.98641 20.5833 7.58332V11.9167H5.41667V7.58332C5.41667 6.98641 5.90308 6.49999 6.5 6.49999ZM19.5 4.33332H18.4167V3.24999C18.4167 2.65416 17.9292 2.16666 17.3333 2.16666C16.7375 2.16666 16.25 2.65416 16.25 3.24999V4.33332H9.75V3.24999C9.75 2.65416 9.2625 2.16666 8.66667 2.16666C8.07083 2.16666 7.58333 2.65416 7.58333 3.24999V4.33332H6.5C4.70817 4.33332 3.25 5.79149 3.25 7.58332V20.5833C3.25 22.3752 4.70817 23.8333 6.5 23.8333H19.5C21.2918 23.8333 22.75 22.3752 22.75 20.5833V7.58332C22.75 5.79149 21.2918 4.33332 19.5 4.33332Z" fill="black"/>
</g>
</svg>
