<svg width="34" height="34" viewBox="0 0 34 34" fill="none" xmlns="http://www.w3.org/2000/svg">
<path d="M12.5 29H8C6.4087 29 4.88258 28.3679 3.75736 27.2426C2.63214 26.1174 2 24.5913 2 23V9.5C2 7.9087 2.63214 6.38258 3.75736 5.25736C4.88258 4.13214 6.4087 3.5 8 3.5H24.5C26.0913 3.5 27.6174 4.13214 28.7426 5.25736C29.8679 6.38258 30.5 7.9087 30.5 9.5V14M11 2V5M21.5 2V5M2 11H30.5M26.75 22.4645L24.5 24.7145" stroke="#FF6D00" stroke-width="3.39623" stroke-linecap="round" stroke-linejoin="round"/>
<path d="M24.5 32C28.6421 32 32 28.6421 32 24.5C32 20.3579 28.6421 17 24.5 17C20.3579 17 17 20.3579 17 24.5C17 28.6421 20.3579 32 24.5 32Z" stroke="#FF6D00" stroke-width="3.39623" stroke-linecap="round" stroke-linejoin="round"/>
</svg>
